/* XPM */
static char *f28b5b7410fe452d906dc7050cb8c954MF586dNwabNrrNm8[] = {
/* columns rows colors chars-per-pixel */
"16 16 51 1 ",
"  c None",
". c #1692D0",
"X c #1792D0",
"o c #1693D0",
"O c #1793D0",
"+ c #1692D1",
"@ c #1792D1",
"# c #1693D1",
"$ c #1793D1",
"% c #1994D1",
"& c #1D96D2",
"* c #2097D3",
"= c #2198D3",
"- c #2298D3",
"; c #2499D4",
": c #269AD4",
"> c #2B9CD5",
", c #2C9DD5",
"< c #2F9ED6",
"1 c #33A0D7",
"2 c #34A1D7",
"3 c #50AEDC",
"4 c #58B1DE",
"5 c #5BB3DF",
"6 c #7FC3E6",
"7 c #86C7E7",
"8 c #8DCAE8",
"9 c #8ECAE9",
"0 c #91CCE9",
"q c #93CDEA",
"w c #94CDEA",
"e c #95CDEA",
"r c #96CEEA",
"t c #9DD1EC",
"y c #ABD8EE",
"u c #C4E3F3",
"i c #C7E5F4",
"p c #C8E6F4",
"a c #CEE8F5",
"s c #D6ECF7",
"d c #E3F2F9",
"f c #EAF5FB",
"g c #EBF6FB",
"h c #EDF7FB",
"j c #F0F8FC",
"k c #F2F9FC",
"l c #F3F9FD",
"z c #F4FAFD",
"x c #F5FAFD",
"c c #FBFDFE",
"v c white",
/* pixels */
"     @@##@@     ",
"   @O%#11#@@@   ",
"  @###@qr#%%%#  ",
" @%##@&gk;##@## ",
" @##%@3gv6#@#@@ ",
"##@%#&dgvg-%#%##",
"##%##6vvvv7#@%%@",
"O@@#:hvpivj:###o",
"##@@8vk-*jv8@###",
"###>zvs$@aci%@%#",
"O$@tzy5$#4yzq#@@",
" $<r<$$$%@#>q<@ ",
" @@@$$$$$$$$@%@ ",
"  O#$$$$$$$$#o  ",
"   @$$#@$$#$#   ",
"     O#O@@@     "
};
