/* XPM */
static char *e0ede0a35e3b49bf870c47b0f8c50049vKHeeqHZJyipYUr0[] = {
/* columns rows colors chars-per-pixel */
"20 20 44 1 ",
"  c None",
". c #1793D1",
"X c #1B95D2",
"o c #1D95D2",
"O c #1F97D3",
"+ c #2699D3",
"@ c #2499D4",
"# c #279AD4",
"$ c #2898D3",
"% c #2998D3",
"& c #299AD4",
"* c #289BD4",
"= c #2D9BD4",
"- c #2A9CD5",
"; c #2D9CD5",
": c #2C9DD5",
"> c #2D9DD5",
", c #2F9DD5",
"< c #2F9ED6",
"1 c #309CD5",
"2 c #319FD6",
"3 c #33A0D7",
"4 c #35A0D7",
"5 c #34A1D7",
"6 c #37A1D7",
"7 c #36A2D7",
"8 c #37A2D7",
"9 c #39A0D7",
"0 c #38A2D7",
"q c #3BA4D8",
"w c #3CA4D8",
"e c #40A6D9",
"r c #41A6D9",
"t c #42A7D9",
"y c #46A6D9",
"u c #45A8DA",
"i c #46A9DA",
"p c #48A8DA",
"a c #48A9DB",
"s c #4AABDB",
"d c #4EADDC",
"f c #53AFDD",
"g c #56B0DE",
"h c #57B1DE",
/* pixels */
"                    ",
"         .;         ",
"         .&         ",
"         Xo         ",
"        @@@5        ",
"        3:@;        ",
"        05;:r       ",
"       itw030       ",
"      fdsir05p      ",
"      ggp01=20      ",
"     hy%......+     ",
"     %.........     ",
"    ....   .....    ",
"    ....    ....    ",
"   X....    .....   ",
"  ......    .....   ",
"  .....      .....  ",
" ...           .... ",
" .               .. ",
"                    "
};
